<mxfile host="app.diagrams.net" modified="2022-02-26T10:17:22.140Z" agent="5.0 (X11; Linux x86_64) AppleWebKit/537.36 (KHTML, like Gecko) Chrome/96.0.4664.110 Safari/537.36" etag="ETemlBHjSyvXc1RZzjV7" version="16.6.4" type="github" pages="2">
  <diagram id="a6dPvhqbL93nOJoBiSFF" name="Base Figures">
    <mxGraphModel dx="569" dy="296" grid="1" gridSize="10" guides="1" tooltips="1" connect="1" arrows="1" fold="1" page="1" pageScale="1" pageWidth="850" pageHeight="1100" math="0" shadow="0">
      <root>
        <mxCell id="0" />
        <mxCell id="1" parent="0" />
        <mxCell id="llBxe3FGBEWm2OS3g-cw-26" value="" style="rounded=0;whiteSpace=wrap;html=1;strokeColor=#7D7D7D;" vertex="1" parent="1">
          <mxGeometry x="363" y="390" width="50" height="50" as="geometry" />
        </mxCell>
        <mxCell id="llBxe3FGBEWm2OS3g-cw-27" value="" style="endArrow=none;html=1;rounded=0;entryX=1;entryY=0.5;entryDx=0;entryDy=0;exitX=0;exitY=0.5;exitDx=0;exitDy=0;strokeColor=#7D7D7D;" edge="1" parent="1" source="llBxe3FGBEWm2OS3g-cw-26" target="llBxe3FGBEWm2OS3g-cw-26">
          <mxGeometry width="50" height="50" relative="1" as="geometry">
            <mxPoint x="393" y="419.99999999999994" as="sourcePoint" />
            <mxPoint x="443" y="419.99999999999994" as="targetPoint" />
          </mxGeometry>
        </mxCell>
        <mxCell id="llBxe3FGBEWm2OS3g-cw-28" value="" style="endArrow=none;html=1;rounded=0;entryX=1;entryY=0.75;entryDx=0;entryDy=0;exitX=0;exitY=0.75;exitDx=0;exitDy=0;strokeColor=#7D7D7D;" edge="1" parent="1" source="llBxe3FGBEWm2OS3g-cw-26" target="llBxe3FGBEWm2OS3g-cw-26">
          <mxGeometry width="50" height="50" relative="1" as="geometry">
            <mxPoint x="363" y="430" as="sourcePoint" />
            <mxPoint x="413" y="430" as="targetPoint" />
          </mxGeometry>
        </mxCell>
        <mxCell id="llBxe3FGBEWm2OS3g-cw-29" value="" style="endArrow=none;html=1;rounded=0;entryX=1;entryY=0.25;entryDx=0;entryDy=0;exitX=0;exitY=0.25;exitDx=0;exitDy=0;strokeColor=#7D7D7D;" edge="1" parent="1" source="llBxe3FGBEWm2OS3g-cw-26" target="llBxe3FGBEWm2OS3g-cw-26">
          <mxGeometry width="50" height="50" relative="1" as="geometry">
            <mxPoint x="363" y="410" as="sourcePoint" />
            <mxPoint x="413" y="410" as="targetPoint" />
          </mxGeometry>
        </mxCell>
        <mxCell id="llBxe3FGBEWm2OS3g-cw-30" value="" style="endArrow=none;html=1;rounded=0;entryX=0.25;entryY=1;entryDx=0;entryDy=0;exitX=0.25;exitY=0;exitDx=0;exitDy=0;strokeColor=#7D7D7D;" edge="1" parent="1" source="llBxe3FGBEWm2OS3g-cw-26" target="llBxe3FGBEWm2OS3g-cw-26">
          <mxGeometry width="50" height="50" relative="1" as="geometry">
            <mxPoint x="373" y="412.5" as="sourcePoint" />
            <mxPoint x="423" y="412.5" as="targetPoint" />
          </mxGeometry>
        </mxCell>
        <mxCell id="llBxe3FGBEWm2OS3g-cw-31" value="" style="endArrow=none;html=1;rounded=0;entryX=0.25;entryY=1;entryDx=0;entryDy=0;exitX=0.25;exitY=0;exitDx=0;exitDy=0;strokeColor=#7D7D7D;" edge="1" parent="1">
          <mxGeometry width="50" height="50" relative="1" as="geometry">
            <mxPoint x="387.89" y="390" as="sourcePoint" />
            <mxPoint x="387.89" y="440" as="targetPoint" />
          </mxGeometry>
        </mxCell>
        <mxCell id="llBxe3FGBEWm2OS3g-cw-32" value="" style="endArrow=none;html=1;rounded=0;entryX=0.75;entryY=1;entryDx=0;entryDy=0;exitX=0.75;exitY=0;exitDx=0;exitDy=0;strokeColor=#7D7D7D;" edge="1" parent="1" source="llBxe3FGBEWm2OS3g-cw-26" target="llBxe3FGBEWm2OS3g-cw-26">
          <mxGeometry width="50" height="50" relative="1" as="geometry">
            <mxPoint x="397.89" y="390" as="sourcePoint" />
            <mxPoint x="397.89" y="440" as="targetPoint" />
          </mxGeometry>
        </mxCell>
        <mxCell id="llBxe3FGBEWm2OS3g-cw-19" value="" style="rounded=0;whiteSpace=wrap;html=1;strokeColor=#7D7D7D;" vertex="1" parent="1">
          <mxGeometry x="357" y="396" width="50" height="50" as="geometry" />
        </mxCell>
        <mxCell id="llBxe3FGBEWm2OS3g-cw-20" value="" style="endArrow=none;html=1;rounded=0;entryX=1;entryY=0.5;entryDx=0;entryDy=0;exitX=0;exitY=0.5;exitDx=0;exitDy=0;strokeColor=#7D7D7D;" edge="1" parent="1" source="llBxe3FGBEWm2OS3g-cw-19" target="llBxe3FGBEWm2OS3g-cw-19">
          <mxGeometry width="50" height="50" relative="1" as="geometry">
            <mxPoint x="387" y="425.99999999999994" as="sourcePoint" />
            <mxPoint x="437" y="425.99999999999994" as="targetPoint" />
          </mxGeometry>
        </mxCell>
        <mxCell id="llBxe3FGBEWm2OS3g-cw-21" value="" style="endArrow=none;html=1;rounded=0;entryX=1;entryY=0.75;entryDx=0;entryDy=0;exitX=0;exitY=0.75;exitDx=0;exitDy=0;strokeColor=#7D7D7D;" edge="1" parent="1" source="llBxe3FGBEWm2OS3g-cw-19" target="llBxe3FGBEWm2OS3g-cw-19">
          <mxGeometry width="50" height="50" relative="1" as="geometry">
            <mxPoint x="357" y="436" as="sourcePoint" />
            <mxPoint x="407" y="436" as="targetPoint" />
          </mxGeometry>
        </mxCell>
        <mxCell id="llBxe3FGBEWm2OS3g-cw-22" value="" style="endArrow=none;html=1;rounded=0;entryX=1;entryY=0.25;entryDx=0;entryDy=0;exitX=0;exitY=0.25;exitDx=0;exitDy=0;strokeColor=#7D7D7D;" edge="1" parent="1" source="llBxe3FGBEWm2OS3g-cw-19" target="llBxe3FGBEWm2OS3g-cw-19">
          <mxGeometry width="50" height="50" relative="1" as="geometry">
            <mxPoint x="357" y="416" as="sourcePoint" />
            <mxPoint x="407" y="416" as="targetPoint" />
          </mxGeometry>
        </mxCell>
        <mxCell id="llBxe3FGBEWm2OS3g-cw-23" value="" style="endArrow=none;html=1;rounded=0;entryX=0.25;entryY=1;entryDx=0;entryDy=0;exitX=0.25;exitY=0;exitDx=0;exitDy=0;strokeColor=#7D7D7D;" edge="1" parent="1" source="llBxe3FGBEWm2OS3g-cw-19" target="llBxe3FGBEWm2OS3g-cw-19">
          <mxGeometry width="50" height="50" relative="1" as="geometry">
            <mxPoint x="367" y="418.5" as="sourcePoint" />
            <mxPoint x="417" y="418.5" as="targetPoint" />
          </mxGeometry>
        </mxCell>
        <mxCell id="llBxe3FGBEWm2OS3g-cw-24" value="" style="endArrow=none;html=1;rounded=0;entryX=0.25;entryY=1;entryDx=0;entryDy=0;exitX=0.25;exitY=0;exitDx=0;exitDy=0;strokeColor=#7D7D7D;" edge="1" parent="1">
          <mxGeometry width="50" height="50" relative="1" as="geometry">
            <mxPoint x="381.89" y="396" as="sourcePoint" />
            <mxPoint x="381.89" y="446" as="targetPoint" />
          </mxGeometry>
        </mxCell>
        <mxCell id="llBxe3FGBEWm2OS3g-cw-25" value="" style="endArrow=none;html=1;rounded=0;entryX=0.75;entryY=1;entryDx=0;entryDy=0;exitX=0.75;exitY=0;exitDx=0;exitDy=0;strokeColor=#7D7D7D;" edge="1" parent="1" source="llBxe3FGBEWm2OS3g-cw-19" target="llBxe3FGBEWm2OS3g-cw-19">
          <mxGeometry width="50" height="50" relative="1" as="geometry">
            <mxPoint x="391.89" y="396" as="sourcePoint" />
            <mxPoint x="391.89" y="446" as="targetPoint" />
          </mxGeometry>
        </mxCell>
        <mxCell id="uFYnnUrZREK0kS9q6HLa-3" value="" style="rounded=0;whiteSpace=wrap;html=1;strokeColor=#7D7D7D;" parent="1" vertex="1">
          <mxGeometry x="240" y="260" width="50" height="70" as="geometry" />
        </mxCell>
        <mxCell id="uFYnnUrZREK0kS9q6HLa-4" value="" style="endArrow=none;html=1;rounded=0;entryX=1;entryY=0.25;entryDx=0;entryDy=0;exitX=0;exitY=0.25;exitDx=0;exitDy=0;strokeColor=#7D7D7D;" parent="1" source="uFYnnUrZREK0kS9q6HLa-3" target="uFYnnUrZREK0kS9q6HLa-3" edge="1">
          <mxGeometry width="50" height="50" relative="1" as="geometry">
            <mxPoint x="250" y="280" as="sourcePoint" />
            <mxPoint x="300" y="280" as="targetPoint" />
          </mxGeometry>
        </mxCell>
        <mxCell id="uFYnnUrZREK0kS9q6HLa-6" value="" style="endArrow=none;html=1;rounded=0;entryX=1;entryY=0.75;entryDx=0;entryDy=0;exitX=0;exitY=0.75;exitDx=0;exitDy=0;strokeColor=#7D7D7D;" parent="1" source="uFYnnUrZREK0kS9q6HLa-3" target="uFYnnUrZREK0kS9q6HLa-3" edge="1">
          <mxGeometry width="50" height="50" relative="1" as="geometry">
            <mxPoint x="250" y="320" as="sourcePoint" />
            <mxPoint x="300" y="270" as="targetPoint" />
          </mxGeometry>
        </mxCell>
        <mxCell id="uFYnnUrZREK0kS9q6HLa-7" value="" style="endArrow=none;html=1;rounded=0;exitX=-0.002;exitY=0.119;exitDx=0;exitDy=0;exitPerimeter=0;entryX=1.005;entryY=0.119;entryDx=0;entryDy=0;entryPerimeter=0;strokeColor=#7D7D7D;" parent="1" source="uFYnnUrZREK0kS9q6HLa-3" target="uFYnnUrZREK0kS9q6HLa-3" edge="1">
          <mxGeometry width="50" height="50" relative="1" as="geometry">
            <mxPoint x="260" y="320" as="sourcePoint" />
            <mxPoint x="310" y="270" as="targetPoint" />
          </mxGeometry>
        </mxCell>
        <mxCell id="uFYnnUrZREK0kS9q6HLa-8" value="" style="endArrow=none;html=1;rounded=0;exitX=0.003;exitY=0.878;exitDx=0;exitDy=0;exitPerimeter=0;entryX=1.001;entryY=0.877;entryDx=0;entryDy=0;entryPerimeter=0;strokeColor=#7D7D7D;" parent="1" source="uFYnnUrZREK0kS9q6HLa-3" target="uFYnnUrZREK0kS9q6HLa-3" edge="1">
          <mxGeometry width="50" height="50" relative="1" as="geometry">
            <mxPoint x="239.99999999999997" y="320.00000000000006" as="sourcePoint" />
            <mxPoint x="290.34999999999997" y="320.00000000000006" as="targetPoint" />
          </mxGeometry>
        </mxCell>
        <mxCell id="uFYnnUrZREK0kS9q6HLa-9" value="" style="endArrow=none;dashed=1;html=1;dashPattern=1 3;strokeWidth=2;rounded=0;strokeColor=#7D7D7D;" parent="1" edge="1">
          <mxGeometry width="50" height="50" relative="1" as="geometry">
            <mxPoint x="264.92" y="305" as="sourcePoint" />
            <mxPoint x="264.92" y="285" as="targetPoint" />
            <Array as="points">
              <mxPoint x="264.92" y="305" />
            </Array>
          </mxGeometry>
        </mxCell>
        <mxCell id="uFYnnUrZREK0kS9q6HLa-10" value="" style="endArrow=classic;html=1;rounded=0;strokeColor=#7D7D7D;" parent="1" edge="1">
          <mxGeometry width="50" height="50" relative="1" as="geometry">
            <mxPoint x="230" y="260" as="sourcePoint" />
            <mxPoint x="230" y="330" as="targetPoint" />
          </mxGeometry>
        </mxCell>
        <mxCell id="uFYnnUrZREK0kS9q6HLa-11" value="" style="endArrow=classic;html=1;rounded=0;strokeColor=#7D7D7D;" parent="1" edge="1">
          <mxGeometry width="50" height="50" relative="1" as="geometry">
            <mxPoint x="240" y="340" as="sourcePoint" />
            <mxPoint x="290" y="340" as="targetPoint" />
          </mxGeometry>
        </mxCell>
        <mxCell id="uFYnnUrZREK0kS9q6HLa-13" value="t" style="text;html=1;strokeColor=none;fillColor=none;align=center;verticalAlign=middle;whiteSpace=wrap;rounded=0;" parent="1" vertex="1">
          <mxGeometry x="219" y="280" width="10" height="30" as="geometry" />
        </mxCell>
        <mxCell id="uFYnnUrZREK0kS9q6HLa-14" value="f" style="text;html=1;strokeColor=none;fillColor=none;align=center;verticalAlign=middle;whiteSpace=wrap;rounded=0;" parent="1" vertex="1">
          <mxGeometry x="259" y="340" width="10" height="20" as="geometry" />
        </mxCell>
        <mxCell id="kDxKcV334ADynLoIrf59-1" value="" style="whiteSpace=wrap;html=1;aspect=fixed;strokeColor=#7D7D7D;" parent="1" vertex="1">
          <mxGeometry x="325" y="260" width="70" height="70" as="geometry" />
        </mxCell>
        <mxCell id="kDxKcV334ADynLoIrf59-2" value="" style="endArrow=none;html=1;rounded=0;strokeColor=#7D7D7D;entryX=0.25;entryY=0;entryDx=0;entryDy=0;exitX=0.25;exitY=1;exitDx=0;exitDy=0;" parent="1" source="kDxKcV334ADynLoIrf59-1" target="kDxKcV334ADynLoIrf59-1" edge="1">
          <mxGeometry width="50" height="50" relative="1" as="geometry">
            <mxPoint x="335" y="310" as="sourcePoint" />
            <mxPoint x="385" y="260" as="targetPoint" />
          </mxGeometry>
        </mxCell>
        <mxCell id="kDxKcV334ADynLoIrf59-3" value="" style="endArrow=none;html=1;rounded=0;strokeColor=#7D7D7D;entryX=0.75;entryY=0;entryDx=0;entryDy=0;exitX=0.75;exitY=1;exitDx=0;exitDy=0;" parent="1" source="kDxKcV334ADynLoIrf59-1" target="kDxKcV334ADynLoIrf59-1" edge="1">
          <mxGeometry width="50" height="50" relative="1" as="geometry">
            <mxPoint x="435" y="330" as="sourcePoint" />
            <mxPoint x="435" y="250" as="targetPoint" />
          </mxGeometry>
        </mxCell>
        <mxCell id="kDxKcV334ADynLoIrf59-4" value="" style="endArrow=none;html=1;rounded=0;strokeColor=#7D7D7D;entryX=0.75;entryY=0;entryDx=0;entryDy=0;exitX=0.75;exitY=1;exitDx=0;exitDy=0;" parent="1" edge="1">
          <mxGeometry width="50" height="50" relative="1" as="geometry">
            <mxPoint x="334" y="330" as="sourcePoint" />
            <mxPoint x="334" y="260" as="targetPoint" />
          </mxGeometry>
        </mxCell>
        <mxCell id="kDxKcV334ADynLoIrf59-5" value="" style="endArrow=none;html=1;rounded=0;strokeColor=#7D7D7D;entryX=0.75;entryY=0;entryDx=0;entryDy=0;exitX=0.75;exitY=1;exitDx=0;exitDy=0;" parent="1" edge="1">
          <mxGeometry width="50" height="50" relative="1" as="geometry">
            <mxPoint x="386" y="330" as="sourcePoint" />
            <mxPoint x="386" y="260" as="targetPoint" />
          </mxGeometry>
        </mxCell>
        <mxCell id="kDxKcV334ADynLoIrf59-6" value="" style="endArrow=none;html=1;rounded=0;strokeColor=#7D7D7D;exitX=0;exitY=0.25;exitDx=0;exitDy=0;entryX=1;entryY=0.25;entryDx=0;entryDy=0;" parent="1" source="kDxKcV334ADynLoIrf59-1" target="kDxKcV334ADynLoIrf59-1" edge="1">
          <mxGeometry width="50" height="50" relative="1" as="geometry">
            <mxPoint x="335" y="290" as="sourcePoint" />
            <mxPoint x="385" y="240" as="targetPoint" />
          </mxGeometry>
        </mxCell>
        <mxCell id="kDxKcV334ADynLoIrf59-7" value="" style="endArrow=none;html=1;rounded=0;strokeColor=#7D7D7D;exitX=0;exitY=0.25;exitDx=0;exitDy=0;entryX=1;entryY=0.25;entryDx=0;entryDy=0;" parent="1" edge="1">
          <mxGeometry width="50" height="50" relative="1" as="geometry">
            <mxPoint x="325" y="269" as="sourcePoint" />
            <mxPoint x="395" y="269" as="targetPoint" />
          </mxGeometry>
        </mxCell>
        <mxCell id="kDxKcV334ADynLoIrf59-8" value="" style="endArrow=none;html=1;rounded=0;strokeColor=#7D7D7D;exitX=0;exitY=0.75;exitDx=0;exitDy=0;entryX=1;entryY=0.75;entryDx=0;entryDy=0;" parent="1" source="kDxKcV334ADynLoIrf59-1" target="kDxKcV334ADynLoIrf59-1" edge="1">
          <mxGeometry width="50" height="50" relative="1" as="geometry">
            <mxPoint x="325" y="320" as="sourcePoint" />
            <mxPoint x="395" y="320" as="targetPoint" />
          </mxGeometry>
        </mxCell>
        <mxCell id="kDxKcV334ADynLoIrf59-9" value="" style="endArrow=none;html=1;rounded=0;strokeColor=#7D7D7D;exitX=0;exitY=0.75;exitDx=0;exitDy=0;entryX=1;entryY=0.75;entryDx=0;entryDy=0;" parent="1" edge="1">
          <mxGeometry width="50" height="50" relative="1" as="geometry">
            <mxPoint x="325" y="321" as="sourcePoint" />
            <mxPoint x="395" y="321" as="targetPoint" />
          </mxGeometry>
        </mxCell>
        <mxCell id="kDxKcV334ADynLoIrf59-12" value="" style="rounded=0;whiteSpace=wrap;html=1;strokeColor=#7D7D7D;" parent="1" vertex="1">
          <mxGeometry x="191" y="260" width="9" height="70" as="geometry" />
        </mxCell>
        <mxCell id="kDxKcV334ADynLoIrf59-13" value="" style="endArrow=none;html=1;rounded=0;entryX=1;entryY=0.25;entryDx=0;entryDy=0;exitX=0;exitY=0.25;exitDx=0;exitDy=0;strokeColor=#7D7D7D;" parent="1" source="kDxKcV334ADynLoIrf59-12" target="kDxKcV334ADynLoIrf59-12" edge="1">
          <mxGeometry width="50" height="50" relative="1" as="geometry">
            <mxPoint x="201" y="280" as="sourcePoint" />
            <mxPoint x="251" y="280" as="targetPoint" />
          </mxGeometry>
        </mxCell>
        <mxCell id="kDxKcV334ADynLoIrf59-14" value="" style="endArrow=none;html=1;rounded=0;entryX=1;entryY=0.75;entryDx=0;entryDy=0;exitX=0;exitY=0.75;exitDx=0;exitDy=0;strokeColor=#7D7D7D;" parent="1" source="kDxKcV334ADynLoIrf59-12" target="kDxKcV334ADynLoIrf59-12" edge="1">
          <mxGeometry width="50" height="50" relative="1" as="geometry">
            <mxPoint x="201" y="320" as="sourcePoint" />
            <mxPoint x="251" y="270" as="targetPoint" />
          </mxGeometry>
        </mxCell>
        <mxCell id="kDxKcV334ADynLoIrf59-15" value="" style="endArrow=none;html=1;rounded=0;exitX=-0.002;exitY=0.119;exitDx=0;exitDy=0;exitPerimeter=0;entryX=1.005;entryY=0.119;entryDx=0;entryDy=0;entryPerimeter=0;strokeColor=#7D7D7D;" parent="1" source="kDxKcV334ADynLoIrf59-12" target="kDxKcV334ADynLoIrf59-12" edge="1">
          <mxGeometry width="50" height="50" relative="1" as="geometry">
            <mxPoint x="211" y="320" as="sourcePoint" />
            <mxPoint x="261" y="270" as="targetPoint" />
          </mxGeometry>
        </mxCell>
        <mxCell id="kDxKcV334ADynLoIrf59-16" value="" style="endArrow=none;html=1;rounded=0;exitX=0.003;exitY=0.878;exitDx=0;exitDy=0;exitPerimeter=0;entryX=1.001;entryY=0.877;entryDx=0;entryDy=0;entryPerimeter=0;strokeColor=#7D7D7D;" parent="1" source="kDxKcV334ADynLoIrf59-12" target="kDxKcV334ADynLoIrf59-12" edge="1">
          <mxGeometry width="50" height="50" relative="1" as="geometry">
            <mxPoint x="190.99999999999997" y="320.00000000000006" as="sourcePoint" />
            <mxPoint x="241.34999999999997" y="320.00000000000006" as="targetPoint" />
          </mxGeometry>
        </mxCell>
        <mxCell id="kDxKcV334ADynLoIrf59-18" value="" style="endArrow=classic;html=1;rounded=0;strokeColor=#7D7D7D;" parent="1" edge="1">
          <mxGeometry width="50" height="50" relative="1" as="geometry">
            <mxPoint x="181" y="260" as="sourcePoint" />
            <mxPoint x="181" y="329.99999999999994" as="targetPoint" />
          </mxGeometry>
        </mxCell>
        <mxCell id="kDxKcV334ADynLoIrf59-19" value="t" style="text;html=1;strokeColor=none;fillColor=none;align=center;verticalAlign=middle;whiteSpace=wrap;rounded=0;" parent="1" vertex="1">
          <mxGeometry x="170" y="280" width="10" height="30" as="geometry" />
        </mxCell>
        <mxCell id="kDxKcV334ADynLoIrf59-20" value="" style="endArrow=none;dashed=1;html=1;dashPattern=1 3;strokeWidth=2;rounded=0;strokeColor=#7D7D7D;" parent="1" edge="1">
          <mxGeometry width="50" height="50" relative="1" as="geometry">
            <mxPoint x="195.39000000000007" y="305" as="sourcePoint" />
            <mxPoint x="195.39000000000007" y="285" as="targetPoint" />
            <Array as="points">
              <mxPoint x="195.39000000000001" y="305" />
            </Array>
          </mxGeometry>
        </mxCell>
        <mxCell id="kDxKcV334ADynLoIrf59-21" value="" style="endArrow=none;html=1;rounded=0;strokeColor=#7D7D7D;entryX=0.75;entryY=0;entryDx=0;entryDy=0;exitX=0.75;exitY=1;exitDx=0;exitDy=0;" parent="1" edge="1">
          <mxGeometry width="50" height="50" relative="1" as="geometry">
            <mxPoint x="359.89" y="329.99999999999994" as="sourcePoint" />
            <mxPoint x="359.89" y="260" as="targetPoint" />
          </mxGeometry>
        </mxCell>
        <mxCell id="kDxKcV334ADynLoIrf59-22" value="" style="endArrow=none;html=1;rounded=0;strokeColor=#7D7D7D;entryX=0.75;entryY=0;entryDx=0;entryDy=0;exitX=0.75;exitY=1;exitDx=0;exitDy=0;" parent="1" edge="1">
          <mxGeometry width="50" height="50" relative="1" as="geometry">
            <mxPoint x="368.89" y="329.99999999999994" as="sourcePoint" />
            <mxPoint x="368.89" y="260" as="targetPoint" />
          </mxGeometry>
        </mxCell>
        <mxCell id="kDxKcV334ADynLoIrf59-23" value="" style="endArrow=none;html=1;rounded=0;strokeColor=#7D7D7D;entryX=0.75;entryY=0;entryDx=0;entryDy=0;exitX=0.75;exitY=1;exitDx=0;exitDy=0;" parent="1" edge="1">
          <mxGeometry width="50" height="50" relative="1" as="geometry">
            <mxPoint x="351" y="329.99999999999994" as="sourcePoint" />
            <mxPoint x="351" y="260" as="targetPoint" />
          </mxGeometry>
        </mxCell>
        <mxCell id="kDxKcV334ADynLoIrf59-24" value="" style="endArrow=none;html=1;rounded=0;strokeColor=#7D7D7D;exitX=0;exitY=0.25;exitDx=0;exitDy=0;entryX=1;entryY=0.25;entryDx=0;entryDy=0;" parent="1" edge="1">
          <mxGeometry width="50" height="50" relative="1" as="geometry">
            <mxPoint x="325" y="286.5" as="sourcePoint" />
            <mxPoint x="395" y="286.5" as="targetPoint" />
          </mxGeometry>
        </mxCell>
        <mxCell id="kDxKcV334ADynLoIrf59-25" value="" style="endArrow=none;html=1;rounded=0;strokeColor=#7D7D7D;exitX=0;exitY=0.25;exitDx=0;exitDy=0;entryX=1;entryY=0.25;entryDx=0;entryDy=0;" parent="1" edge="1">
          <mxGeometry width="50" height="50" relative="1" as="geometry">
            <mxPoint x="325" y="295.5" as="sourcePoint" />
            <mxPoint x="395" y="295.5" as="targetPoint" />
          </mxGeometry>
        </mxCell>
        <mxCell id="kDxKcV334ADynLoIrf59-26" value="" style="endArrow=none;html=1;rounded=0;strokeColor=#7D7D7D;exitX=0;exitY=0.25;exitDx=0;exitDy=0;entryX=1;entryY=0.25;entryDx=0;entryDy=0;" parent="1" edge="1">
          <mxGeometry width="50" height="50" relative="1" as="geometry">
            <mxPoint x="325" y="303.5" as="sourcePoint" />
            <mxPoint x="395" y="303.5" as="targetPoint" />
          </mxGeometry>
        </mxCell>
        <mxCell id="kDxKcV334ADynLoIrf59-27" value="" style="endArrow=classic;html=1;rounded=0;strokeColor=#7D7D7D;" parent="1" edge="1">
          <mxGeometry width="50" height="50" relative="1" as="geometry">
            <mxPoint x="314" y="260" as="sourcePoint" />
            <mxPoint x="314" y="329.99999999999994" as="targetPoint" />
          </mxGeometry>
        </mxCell>
        <mxCell id="kDxKcV334ADynLoIrf59-28" value="t" style="text;html=1;strokeColor=none;fillColor=none;align=center;verticalAlign=middle;whiteSpace=wrap;rounded=0;" parent="1" vertex="1">
          <mxGeometry x="303" y="280" width="10" height="30" as="geometry" />
        </mxCell>
        <mxCell id="kDxKcV334ADynLoIrf59-29" value="" style="endArrow=classic;html=1;rounded=0;strokeColor=#7D7D7D;" parent="1" edge="1">
          <mxGeometry width="50" height="50" relative="1" as="geometry">
            <mxPoint x="325" y="340" as="sourcePoint" />
            <mxPoint x="395" y="340" as="targetPoint" />
          </mxGeometry>
        </mxCell>
        <mxCell id="kDxKcV334ADynLoIrf59-30" value="t" style="text;html=1;strokeColor=none;fillColor=none;align=center;verticalAlign=middle;whiteSpace=wrap;rounded=0;" parent="1" vertex="1">
          <mxGeometry x="355" y="338" width="10" height="30" as="geometry" />
        </mxCell>
        <mxCell id="kDxKcV334ADynLoIrf59-31" value="" style="rounded=0;whiteSpace=wrap;html=1;strokeColor=#7D7D7D;" parent="1" vertex="1">
          <mxGeometry x="239" y="391" width="50" height="50" as="geometry" />
        </mxCell>
        <mxCell id="kDxKcV334ADynLoIrf59-37" value="" style="endArrow=classic;html=1;rounded=0;strokeColor=#7D7D7D;" parent="1" edge="1">
          <mxGeometry width="50" height="50" relative="1" as="geometry">
            <mxPoint x="240" y="453" as="sourcePoint" />
            <mxPoint x="290" y="453" as="targetPoint" />
          </mxGeometry>
        </mxCell>
        <mxCell id="kDxKcV334ADynLoIrf59-38" value="f" style="text;html=1;strokeColor=none;fillColor=none;align=center;verticalAlign=middle;whiteSpace=wrap;rounded=0;" parent="1" vertex="1">
          <mxGeometry x="259" y="453" width="10" height="20" as="geometry" />
        </mxCell>
        <mxCell id="kDxKcV334ADynLoIrf59-40" value="" style="endArrow=none;html=1;rounded=0;entryX=1;entryY=0.5;entryDx=0;entryDy=0;exitX=0;exitY=0.5;exitDx=0;exitDy=0;strokeColor=#7D7D7D;" parent="1" source="kDxKcV334ADynLoIrf59-31" target="kDxKcV334ADynLoIrf59-31" edge="1">
          <mxGeometry width="50" height="50" relative="1" as="geometry">
            <mxPoint x="269" y="420.99999999999994" as="sourcePoint" />
            <mxPoint x="319" y="420.99999999999994" as="targetPoint" />
          </mxGeometry>
        </mxCell>
        <mxCell id="kDxKcV334ADynLoIrf59-41" value="" style="endArrow=none;html=1;rounded=0;entryX=1;entryY=0.75;entryDx=0;entryDy=0;exitX=0;exitY=0.75;exitDx=0;exitDy=0;strokeColor=#7D7D7D;" parent="1" source="kDxKcV334ADynLoIrf59-31" target="kDxKcV334ADynLoIrf59-31" edge="1">
          <mxGeometry width="50" height="50" relative="1" as="geometry">
            <mxPoint x="239" y="431" as="sourcePoint" />
            <mxPoint x="289" y="431" as="targetPoint" />
          </mxGeometry>
        </mxCell>
        <mxCell id="kDxKcV334ADynLoIrf59-42" value="" style="endArrow=none;html=1;rounded=0;entryX=1;entryY=0.25;entryDx=0;entryDy=0;exitX=0;exitY=0.25;exitDx=0;exitDy=0;strokeColor=#7D7D7D;" parent="1" source="kDxKcV334ADynLoIrf59-31" target="kDxKcV334ADynLoIrf59-31" edge="1">
          <mxGeometry width="50" height="50" relative="1" as="geometry">
            <mxPoint x="239" y="411" as="sourcePoint" />
            <mxPoint x="289" y="411" as="targetPoint" />
          </mxGeometry>
        </mxCell>
        <mxCell id="kDxKcV334ADynLoIrf59-43" value="" style="endArrow=none;html=1;rounded=0;entryX=0.25;entryY=1;entryDx=0;entryDy=0;exitX=0.25;exitY=0;exitDx=0;exitDy=0;strokeColor=#7D7D7D;" parent="1" source="kDxKcV334ADynLoIrf59-31" target="kDxKcV334ADynLoIrf59-31" edge="1">
          <mxGeometry width="50" height="50" relative="1" as="geometry">
            <mxPoint x="249" y="413.5" as="sourcePoint" />
            <mxPoint x="299" y="413.5" as="targetPoint" />
          </mxGeometry>
        </mxCell>
        <mxCell id="kDxKcV334ADynLoIrf59-44" value="" style="endArrow=none;html=1;rounded=0;entryX=0.25;entryY=1;entryDx=0;entryDy=0;exitX=0.25;exitY=0;exitDx=0;exitDy=0;strokeColor=#7D7D7D;" parent="1" edge="1">
          <mxGeometry width="50" height="50" relative="1" as="geometry">
            <mxPoint x="263.89" y="391" as="sourcePoint" />
            <mxPoint x="263.89" y="441" as="targetPoint" />
          </mxGeometry>
        </mxCell>
        <mxCell id="kDxKcV334ADynLoIrf59-45" value="" style="endArrow=none;html=1;rounded=0;entryX=0.75;entryY=1;entryDx=0;entryDy=0;exitX=0.75;exitY=0;exitDx=0;exitDy=0;strokeColor=#7D7D7D;" parent="1" source="kDxKcV334ADynLoIrf59-31" target="kDxKcV334ADynLoIrf59-31" edge="1">
          <mxGeometry width="50" height="50" relative="1" as="geometry">
            <mxPoint x="273.89" y="391" as="sourcePoint" />
            <mxPoint x="273.89" y="441" as="targetPoint" />
          </mxGeometry>
        </mxCell>
        <mxCell id="kDxKcV334ADynLoIrf59-46" value="f" style="text;html=1;strokeColor=none;fillColor=none;align=center;verticalAlign=middle;whiteSpace=wrap;rounded=0;" parent="1" vertex="1">
          <mxGeometry x="219" y="406" width="10" height="20" as="geometry" />
        </mxCell>
        <mxCell id="kDxKcV334ADynLoIrf59-47" value="" style="endArrow=classic;html=1;rounded=0;strokeColor=#7D7D7D;" parent="1" edge="1">
          <mxGeometry width="50" height="50" relative="1" as="geometry">
            <mxPoint x="230" y="391" as="sourcePoint" />
            <mxPoint x="230" y="441" as="targetPoint" />
          </mxGeometry>
        </mxCell>
        <mxCell id="kDxKcV334ADynLoIrf59-48" value="" style="rounded=0;whiteSpace=wrap;html=1;strokeColor=#7D7D7D;" parent="1" vertex="1">
          <mxGeometry x="240" y="192.5" width="50" height="12.5" as="geometry" />
        </mxCell>
        <mxCell id="kDxKcV334ADynLoIrf59-49" value="" style="endArrow=classic;html=1;rounded=0;strokeColor=#7D7D7D;" parent="1" edge="1">
          <mxGeometry width="50" height="50" relative="1" as="geometry">
            <mxPoint x="239" y="215" as="sourcePoint" />
            <mxPoint x="290" y="215" as="targetPoint" />
          </mxGeometry>
        </mxCell>
        <mxCell id="kDxKcV334ADynLoIrf59-50" value="f" style="text;html=1;strokeColor=none;fillColor=none;align=center;verticalAlign=middle;whiteSpace=wrap;rounded=0;" parent="1" vertex="1">
          <mxGeometry x="259" y="215" width="10" height="20" as="geometry" />
        </mxCell>
        <mxCell id="kDxKcV334ADynLoIrf59-54" value="" style="endArrow=none;html=1;rounded=0;entryX=0.25;entryY=1;entryDx=0;entryDy=0;exitX=0.25;exitY=0;exitDx=0;exitDy=0;strokeColor=#7D7D7D;" parent="1" source="kDxKcV334ADynLoIrf59-48" target="kDxKcV334ADynLoIrf59-48" edge="1">
          <mxGeometry width="50" height="50" relative="1" as="geometry">
            <mxPoint x="249" y="172.5" as="sourcePoint" />
            <mxPoint x="299" y="172.5" as="targetPoint" />
          </mxGeometry>
        </mxCell>
        <mxCell id="kDxKcV334ADynLoIrf59-55" value="" style="endArrow=none;html=1;rounded=0;entryX=0.5;entryY=1;entryDx=0;entryDy=0;strokeColor=#7D7D7D;exitX=0.5;exitY=0;exitDx=0;exitDy=0;" parent="1" source="kDxKcV334ADynLoIrf59-48" target="kDxKcV334ADynLoIrf59-48" edge="1">
          <mxGeometry width="50" height="50" relative="1" as="geometry">
            <mxPoint x="264" y="185" as="sourcePoint" />
            <mxPoint x="263.89" y="200" as="targetPoint" />
          </mxGeometry>
        </mxCell>
        <mxCell id="kDxKcV334ADynLoIrf59-56" value="" style="endArrow=none;html=1;rounded=0;entryX=0.75;entryY=1;entryDx=0;entryDy=0;exitX=0.75;exitY=0;exitDx=0;exitDy=0;strokeColor=#7D7D7D;" parent="1" source="kDxKcV334ADynLoIrf59-48" target="kDxKcV334ADynLoIrf59-48" edge="1">
          <mxGeometry width="50" height="50" relative="1" as="geometry">
            <mxPoint x="273.89" y="150" as="sourcePoint" />
            <mxPoint x="273.89" y="200" as="targetPoint" />
          </mxGeometry>
        </mxCell>
        <mxCell id="llBxe3FGBEWm2OS3g-cw-8" value="" style="rounded=0;whiteSpace=wrap;html=1;strokeColor=#7D7D7D;" vertex="1" parent="1">
          <mxGeometry x="351" y="402" width="50" height="50" as="geometry" />
        </mxCell>
        <mxCell id="llBxe3FGBEWm2OS3g-cw-9" value="" style="endArrow=classic;html=1;rounded=0;strokeColor=#7D7D7D;" edge="1" parent="1">
          <mxGeometry width="50" height="50" relative="1" as="geometry">
            <mxPoint x="352" y="464" as="sourcePoint" />
            <mxPoint x="402" y="464" as="targetPoint" />
          </mxGeometry>
        </mxCell>
        <mxCell id="llBxe3FGBEWm2OS3g-cw-10" value="f" style="text;html=1;strokeColor=none;fillColor=none;align=center;verticalAlign=middle;whiteSpace=wrap;rounded=0;" vertex="1" parent="1">
          <mxGeometry x="371" y="464" width="10" height="20" as="geometry" />
        </mxCell>
        <mxCell id="llBxe3FGBEWm2OS3g-cw-11" value="" style="endArrow=none;html=1;rounded=0;entryX=1;entryY=0.5;entryDx=0;entryDy=0;exitX=0;exitY=0.5;exitDx=0;exitDy=0;strokeColor=#7D7D7D;" edge="1" parent="1" source="llBxe3FGBEWm2OS3g-cw-8" target="llBxe3FGBEWm2OS3g-cw-8">
          <mxGeometry width="50" height="50" relative="1" as="geometry">
            <mxPoint x="381" y="431.99999999999994" as="sourcePoint" />
            <mxPoint x="431" y="431.99999999999994" as="targetPoint" />
          </mxGeometry>
        </mxCell>
        <mxCell id="llBxe3FGBEWm2OS3g-cw-12" value="" style="endArrow=none;html=1;rounded=0;entryX=1;entryY=0.75;entryDx=0;entryDy=0;exitX=0;exitY=0.75;exitDx=0;exitDy=0;strokeColor=#7D7D7D;" edge="1" parent="1" source="llBxe3FGBEWm2OS3g-cw-8" target="llBxe3FGBEWm2OS3g-cw-8">
          <mxGeometry width="50" height="50" relative="1" as="geometry">
            <mxPoint x="351" y="442" as="sourcePoint" />
            <mxPoint x="401" y="442" as="targetPoint" />
          </mxGeometry>
        </mxCell>
        <mxCell id="llBxe3FGBEWm2OS3g-cw-13" value="" style="endArrow=none;html=1;rounded=0;entryX=1;entryY=0.25;entryDx=0;entryDy=0;exitX=0;exitY=0.25;exitDx=0;exitDy=0;strokeColor=#7D7D7D;" edge="1" parent="1" source="llBxe3FGBEWm2OS3g-cw-8" target="llBxe3FGBEWm2OS3g-cw-8">
          <mxGeometry width="50" height="50" relative="1" as="geometry">
            <mxPoint x="351" y="422" as="sourcePoint" />
            <mxPoint x="401" y="422" as="targetPoint" />
          </mxGeometry>
        </mxCell>
        <mxCell id="llBxe3FGBEWm2OS3g-cw-14" value="" style="endArrow=none;html=1;rounded=0;entryX=0.25;entryY=1;entryDx=0;entryDy=0;exitX=0.25;exitY=0;exitDx=0;exitDy=0;strokeColor=#7D7D7D;" edge="1" parent="1" source="llBxe3FGBEWm2OS3g-cw-8" target="llBxe3FGBEWm2OS3g-cw-8">
          <mxGeometry width="50" height="50" relative="1" as="geometry">
            <mxPoint x="361" y="424.5" as="sourcePoint" />
            <mxPoint x="411" y="424.5" as="targetPoint" />
          </mxGeometry>
        </mxCell>
        <mxCell id="llBxe3FGBEWm2OS3g-cw-15" value="" style="endArrow=none;html=1;rounded=0;entryX=0.25;entryY=1;entryDx=0;entryDy=0;exitX=0.25;exitY=0;exitDx=0;exitDy=0;strokeColor=#7D7D7D;" edge="1" parent="1">
          <mxGeometry width="50" height="50" relative="1" as="geometry">
            <mxPoint x="375.89" y="402" as="sourcePoint" />
            <mxPoint x="375.89" y="452" as="targetPoint" />
          </mxGeometry>
        </mxCell>
        <mxCell id="llBxe3FGBEWm2OS3g-cw-16" value="" style="endArrow=none;html=1;rounded=0;entryX=0.75;entryY=1;entryDx=0;entryDy=0;exitX=0.75;exitY=0;exitDx=0;exitDy=0;strokeColor=#7D7D7D;" edge="1" parent="1" source="llBxe3FGBEWm2OS3g-cw-8" target="llBxe3FGBEWm2OS3g-cw-8">
          <mxGeometry width="50" height="50" relative="1" as="geometry">
            <mxPoint x="385.89" y="402" as="sourcePoint" />
            <mxPoint x="385.89" y="452" as="targetPoint" />
          </mxGeometry>
        </mxCell>
        <mxCell id="llBxe3FGBEWm2OS3g-cw-17" value="f" style="text;html=1;strokeColor=none;fillColor=none;align=center;verticalAlign=middle;whiteSpace=wrap;rounded=0;" vertex="1" parent="1">
          <mxGeometry x="331" y="417" width="10" height="20" as="geometry" />
        </mxCell>
        <mxCell id="llBxe3FGBEWm2OS3g-cw-18" value="" style="endArrow=classic;html=1;rounded=0;strokeColor=#7D7D7D;" edge="1" parent="1">
          <mxGeometry width="50" height="50" relative="1" as="geometry">
            <mxPoint x="342" y="402" as="sourcePoint" />
            <mxPoint x="342" y="452" as="targetPoint" />
          </mxGeometry>
        </mxCell>
        <mxCell id="llBxe3FGBEWm2OS3g-cw-33" value="" style="endArrow=classic;html=1;rounded=0;strokeColor=#7D7D7D;" edge="1" parent="1">
          <mxGeometry width="50" height="50" relative="1" as="geometry">
            <mxPoint x="407" y="456" as="sourcePoint" />
            <mxPoint x="420" y="440" as="targetPoint" />
          </mxGeometry>
        </mxCell>
        <mxCell id="llBxe3FGBEWm2OS3g-cw-34" value="n" style="text;html=1;strokeColor=none;fillColor=none;align=center;verticalAlign=middle;whiteSpace=wrap;rounded=0;" vertex="1" parent="1">
          <mxGeometry x="425" y="437" width="10" height="20" as="geometry" />
        </mxCell>
        <mxCell id="WUu5l9-QUIC9GoK5ontA-1" value="" style="ellipse;whiteSpace=wrap;html=1;aspect=fixed;fontColor=#004C99;" vertex="1" parent="1">
          <mxGeometry x="500" y="200" width="80" height="80" as="geometry" />
        </mxCell>
        <mxCell id="WUu5l9-QUIC9GoK5ontA-5" value="" style="endArrow=none;html=1;rounded=0;fontColor=#004C99;strokeWidth=4;" edge="1" parent="1">
          <mxGeometry width="50" height="50" relative="1" as="geometry">
            <mxPoint x="540" y="260" as="sourcePoint" />
            <mxPoint x="540" y="220" as="targetPoint" />
          </mxGeometry>
        </mxCell>
        <mxCell id="WUu5l9-QUIC9GoK5ontA-6" value="" style="endArrow=none;html=1;rounded=0;fontColor=#004C99;strokeWidth=4;entryX=0.25;entryY=0.5;entryDx=0;entryDy=0;entryPerimeter=0;exitX=0.25;exitY=0.5;exitDx=0;exitDy=0;exitPerimeter=0;" edge="1" parent="1" source="WUu5l9-QUIC9GoK5ontA-1">
          <mxGeometry width="50" height="50" relative="1" as="geometry">
            <mxPoint x="550" y="230" as="sourcePoint" />
            <mxPoint x="560" y="240" as="targetPoint" />
          </mxGeometry>
        </mxCell>
      </root>
    </mxGraphModel>
  </diagram>
  <diagram id="04qBmH-5FEiZBy8_Gc5b" name="attention">
    <mxGraphModel dx="981" dy="510" grid="1" gridSize="10" guides="1" tooltips="1" connect="1" arrows="1" fold="1" page="1" pageScale="1" pageWidth="1100" pageHeight="850" math="0" shadow="0">
      <root>
        <mxCell id="gq8mlasPrk5nN6835-Ot-0" />
        <mxCell id="gq8mlasPrk5nN6835-Ot-1" parent="gq8mlasPrk5nN6835-Ot-0" />
        <mxCell id="UETh8ya8VPdoZfBYhPBw-0" value="Linear" style="rounded=1;whiteSpace=wrap;html=1;fillColor=#ffe6cc;strokeColor=#d79b00;" vertex="1" parent="gq8mlasPrk5nN6835-Ot-1">
          <mxGeometry x="220" y="170" width="90" height="30" as="geometry" />
        </mxCell>
        <mxCell id="9E7qsn4mrUv-apsOlwVs-0" value="" style="shape=image;verticalLabelPosition=bottom;labelBackgroundColor=default;verticalAlign=top;aspect=fixed;imageAspect=0;image=data:image/svg+xml,PHN2ZyB4bWxucz0iaHR0cDovL3d3dy53My5vcmcvMjAwMC9zdmciIHhtbG5zOnhsaW5rPSJodHRwOi8vd3d3LnczLm9yZy8xOTk5L3hsaW5rIiB2ZXJzaW9uPSIxLjEiIHdpZHRoPSI4MHB4IiBoZWlnaHQ9IjEwOHB4IiB2aWV3Qm94PSItMC41IC0wLjUgODAgMTA4Ij48ZGVmcy8+PGc+PHJlY3QgeD0iMjEiIHk9IjciIHdpZHRoPSI1MCIgaGVpZ2h0PSI3MCIgZmlsbD0icmdiKDI1NSwgMjU1LCAyNTUpIiBzdHJva2U9IiM3ZDdkN2QiIHBvaW50ZXItZXZlbnRzPSJhbGwiLz48cGF0aCBkPSJNIDIxIDI0LjUgTCA3MSAyNC41IiBmaWxsPSJub25lIiBzdHJva2U9IiM3ZDdkN2QiIHN0cm9rZS1taXRlcmxpbWl0PSIxMCIgcG9pbnRlci1ldmVudHM9InN0cm9rZSIvPjxwYXRoIGQ9Ik0gMjEgNTkuNSBMIDcxIDU5LjUiIGZpbGw9Im5vbmUiIHN0cm9rZT0iIzdkN2Q3ZCIgc3Ryb2tlLW1pdGVybGltaXQ9IjEwIiBwb2ludGVyLWV2ZW50cz0ic3Ryb2tlIi8+PHBhdGggZD0iTSAyMC45IDE1LjMzIEwgNzEuMjUgMTUuMzMiIGZpbGw9Im5vbmUiIHN0cm9rZT0iIzdkN2Q3ZCIgc3Ryb2tlLW1pdGVybGltaXQ9IjEwIiBwb2ludGVyLWV2ZW50cz0ic3Ryb2tlIi8+PHBhdGggZD0iTSAyMS4xNSA2OC40NiBMIDcxLjA1IDY4LjM5IiBmaWxsPSJub25lIiBzdHJva2U9IiM3ZDdkN2QiIHN0cm9rZS1taXRlcmxpbWl0PSIxMCIgcG9pbnRlci1ldmVudHM9InN0cm9rZSIvPjxwYXRoIGQ9Ik0gNDUuOTIgNTIgTCA0NS45MiAzMiIgZmlsbD0ibm9uZSIgc3Ryb2tlPSIjN2Q3ZDdkIiBzdHJva2Utd2lkdGg9IjIiIHN0cm9rZS1taXRlcmxpbWl0PSIxMCIgc3Ryb2tlLWRhc2hhcnJheT0iMiA2IiBwb2ludGVyLWV2ZW50cz0ic3Ryb2tlIi8+PHBhdGggZD0iTSAxMSA3IEwgMTEgNzAuNjMiIGZpbGw9Im5vbmUiIHN0cm9rZT0iIzdkN2Q3ZCIgc3Ryb2tlLW1pdGVybGltaXQ9IjEwIiBwb2ludGVyLWV2ZW50cz0ic3Ryb2tlIi8+PHBhdGggZD0iTSAxMSA3NS44OCBMIDcuNSA2OC44OCBMIDExIDcwLjYzIEwgMTQuNSA2OC44OCBaIiBmaWxsPSIjN2Q3ZDdkIiBzdHJva2U9IiM3ZDdkN2QiIHN0cm9rZS1taXRlcmxpbWl0PSIxMCIgcG9pbnRlci1ldmVudHM9ImFsbCIvPjxwYXRoIGQ9Ik0gMjEgODcgTCA2NC42MyA4NyIgZmlsbD0ibm9uZSIgc3Ryb2tlPSIjN2Q3ZDdkIiBzdHJva2UtbWl0ZXJsaW1pdD0iMTAiIHBvaW50ZXItZXZlbnRzPSJzdHJva2UiLz48cGF0aCBkPSJNIDY5Ljg4IDg3IEwgNjIuODggOTAuNSBMIDY0LjYzIDg3IEwgNjIuODggODMuNSBaIiBmaWxsPSIjN2Q3ZDdkIiBzdHJva2U9IiM3ZDdkN2QiIHN0cm9rZS1taXRlcmxpbWl0PSIxMCIgcG9pbnRlci1ldmVudHM9ImFsbCIvPjxyZWN0IHg9IjAiIHk9IjI3IiB3aWR0aD0iMTAiIGhlaWdodD0iMzAiIGZpbGw9Im5vbmUiIHN0cm9rZT0ibm9uZSIgcG9pbnRlci1ldmVudHM9ImFsbCIvPjxnIHRyYW5zZm9ybT0idHJhbnNsYXRlKC0wLjUgLTAuNSkiPjxzd2l0Y2g+PGZvcmVpZ25PYmplY3QgcG9pbnRlci1ldmVudHM9Im5vbmUiIHdpZHRoPSIxMDAlIiBoZWlnaHQ9IjEwMCUiIHJlcXVpcmVkRmVhdHVyZXM9Imh0dHA6Ly93d3cudzMub3JnL1RSL1NWRzExL2ZlYXR1cmUjRXh0ZW5zaWJpbGl0eSIgc3R5bGU9Im92ZXJmbG93OiB2aXNpYmxlOyB0ZXh0LWFsaWduOiBsZWZ0OyI+PGRpdiB4bWxucz0iaHR0cDovL3d3dy53My5vcmcvMTk5OS94aHRtbCIgc3R5bGU9ImRpc3BsYXk6IGZsZXg7IGFsaWduLWl0ZW1zOiB1bnNhZmUgY2VudGVyOyBqdXN0aWZ5LWNvbnRlbnQ6IHVuc2FmZSBjZW50ZXI7IHdpZHRoOiA4cHg7IGhlaWdodDogMXB4OyBwYWRkaW5nLXRvcDogNDJweDsgbWFyZ2luLWxlZnQ6IDFweDsiPjxkaXYgZGF0YS1kcmF3aW8tY29sb3JzPSJjb2xvcjogcmdiKDAsIDAsIDApOyAiIHN0eWxlPSJib3gtc2l6aW5nOiBib3JkZXItYm94OyBmb250LXNpemU6IDBweDsgdGV4dC1hbGlnbjogY2VudGVyOyI+PGRpdiBzdHlsZT0iZGlzcGxheTogaW5saW5lLWJsb2NrOyBmb250LXNpemU6IDEycHg7IGZvbnQtZmFtaWx5OiBIZWx2ZXRpY2E7IGNvbG9yOiByZ2IoMCwgMCwgMCk7IGxpbmUtaGVpZ2h0OiAxLjI7IHBvaW50ZXItZXZlbnRzOiBhbGw7IHdoaXRlLXNwYWNlOiBub3JtYWw7IG92ZXJmbG93LXdyYXA6IG5vcm1hbDsiPnQ8L2Rpdj48L2Rpdj48L2Rpdj48L2ZvcmVpZ25PYmplY3Q+PHRleHQgeD0iNSIgeT0iNDYiIGZpbGw9InJnYigwLCAwLCAwKSIgZm9udC1mYW1pbHk9IkhlbHZldGljYSIgZm9udC1zaXplPSIxMnB4IiB0ZXh0LWFuY2hvcj0ibWlkZGxlIj50PC90ZXh0Pjwvc3dpdGNoPjwvZz48cmVjdCB4PSI0MCIgeT0iODciIHdpZHRoPSIxMCIgaGVpZ2h0PSIyMCIgZmlsbD0ibm9uZSIgc3Ryb2tlPSJub25lIiBwb2ludGVyLWV2ZW50cz0iYWxsIi8+PGcgdHJhbnNmb3JtPSJ0cmFuc2xhdGUoLTAuNSAtMC41KSI+PHN3aXRjaD48Zm9yZWlnbk9iamVjdCBwb2ludGVyLWV2ZW50cz0ibm9uZSIgd2lkdGg9IjEwMCUiIGhlaWdodD0iMTAwJSIgcmVxdWlyZWRGZWF0dXJlcz0iaHR0cDovL3d3dy53My5vcmcvVFIvU1ZHMTEvZmVhdHVyZSNFeHRlbnNpYmlsaXR5IiBzdHlsZT0ib3ZlcmZsb3c6IHZpc2libGU7IHRleHQtYWxpZ246IGxlZnQ7Ij48ZGl2IHhtbG5zPSJodHRwOi8vd3d3LnczLm9yZy8xOTk5L3hodG1sIiBzdHlsZT0iZGlzcGxheTogZmxleDsgYWxpZ24taXRlbXM6IHVuc2FmZSBjZW50ZXI7IGp1c3RpZnktY29udGVudDogdW5zYWZlIGNlbnRlcjsgd2lkdGg6IDhweDsgaGVpZ2h0OiAxcHg7IHBhZGRpbmctdG9wOiA5N3B4OyBtYXJnaW4tbGVmdDogNDFweDsiPjxkaXYgZGF0YS1kcmF3aW8tY29sb3JzPSJjb2xvcjogcmdiKDAsIDAsIDApOyAiIHN0eWxlPSJib3gtc2l6aW5nOiBib3JkZXItYm94OyBmb250LXNpemU6IDBweDsgdGV4dC1hbGlnbjogY2VudGVyOyI+PGRpdiBzdHlsZT0iZGlzcGxheTogaW5saW5lLWJsb2NrOyBmb250LXNpemU6IDEycHg7IGZvbnQtZmFtaWx5OiBIZWx2ZXRpY2E7IGNvbG9yOiByZ2IoMCwgMCwgMCk7IGxpbmUtaGVpZ2h0OiAxLjI7IHBvaW50ZXItZXZlbnRzOiBhbGw7IHdoaXRlLXNwYWNlOiBub3JtYWw7IG92ZXJmbG93LXdyYXA6IG5vcm1hbDsiPmY8L2Rpdj48L2Rpdj48L2Rpdj48L2ZvcmVpZ25PYmplY3Q+PHRleHQgeD0iNDUiIHk9IjEwMSIgZmlsbD0icmdiKDAsIDAsIDApIiBmb250LWZhbWlseT0iSGVsdmV0aWNhIiBmb250LXNpemU9IjEycHgiIHRleHQtYW5jaG9yPSJtaWRkbGUiPmY8L3RleHQ+PC9zd2l0Y2g+PC9nPjwvZz48c3dpdGNoPjxnIHJlcXVpcmVkRmVhdHVyZXM9Imh0dHA6Ly93d3cudzMub3JnL1RSL1NWRzExL2ZlYXR1cmUjRXh0ZW5zaWJpbGl0eSIvPjxhIHRyYW5zZm9ybT0idHJhbnNsYXRlKDAsLTUpIiB4bGluazpocmVmPSJodHRwczovL3d3dy5kaWFncmFtcy5uZXQvZG9jL2ZhcS9zdmctZXhwb3J0LXRleHQtcHJvYmxlbXMiIHRhcmdldD0iX2JsYW5rIj48dGV4dCB0ZXh0LWFuY2hvcj0ibWlkZGxlIiBmb250LXNpemU9IjEwcHgiIHg9IjUwJSIgeT0iMTAwJSI+VGV4dCBpcyBub3QgU1ZHIC0gY2Fubm90IGRpc3BsYXk8L3RleHQ+PC9hPjwvc3dpdGNoPjwvc3ZnPg==;" vertex="1" parent="gq8mlasPrk5nN6835-Ot-1">
          <mxGeometry x="159" y="190" width="50" height="67.5" as="geometry" />
        </mxCell>
        <mxCell id="9E7qsn4mrUv-apsOlwVs-1" value="Query Projection" style="text;html=1;strokeColor=none;fillColor=none;align=center;verticalAlign=middle;whiteSpace=wrap;rounded=0;" vertex="1" parent="gq8mlasPrk5nN6835-Ot-1">
          <mxGeometry x="220" y="140" width="100" height="30" as="geometry" />
        </mxCell>
        <mxCell id="9E7qsn4mrUv-apsOlwVs-4" style="edgeStyle=orthogonalEdgeStyle;rounded=0;orthogonalLoop=1;jettySize=auto;html=1;exitX=1;exitY=0.5;exitDx=0;exitDy=0;entryX=0;entryY=0.5;entryDx=0;entryDy=0;" edge="1" parent="gq8mlasPrk5nN6835-Ot-1" source="9E7qsn4mrUv-apsOlwVs-2" target="UETh8ya8VPdoZfBYhPBw-0">
          <mxGeometry relative="1" as="geometry" />
        </mxCell>
        <mxCell id="9E7qsn4mrUv-apsOlwVs-2" value="Query" style="text;html=1;strokeColor=none;fillColor=none;align=center;verticalAlign=middle;whiteSpace=wrap;rounded=0;fontColor=#004C99;" vertex="1" parent="gq8mlasPrk5nN6835-Ot-1">
          <mxGeometry x="120" y="170" width="40" height="30" as="geometry" />
        </mxCell>
        <mxCell id="9E7qsn4mrUv-apsOlwVs-3" style="edgeStyle=orthogonalEdgeStyle;rounded=0;orthogonalLoop=1;jettySize=auto;html=1;exitX=0.5;exitY=1;exitDx=0;exitDy=0;" edge="1" parent="gq8mlasPrk5nN6835-Ot-1" source="9E7qsn4mrUv-apsOlwVs-2" target="9E7qsn4mrUv-apsOlwVs-2">
          <mxGeometry relative="1" as="geometry" />
        </mxCell>
        <mxCell id="9E7qsn4mrUv-apsOlwVs-7" value="Linear" style="rounded=1;whiteSpace=wrap;html=1;fillColor=#ffe6cc;strokeColor=#d79b00;" vertex="1" parent="gq8mlasPrk5nN6835-Ot-1">
          <mxGeometry x="220" y="52.5" width="90" height="30" as="geometry" />
        </mxCell>
        <mxCell id="9E7qsn4mrUv-apsOlwVs-8" value="" style="shape=image;verticalLabelPosition=bottom;labelBackgroundColor=default;verticalAlign=top;aspect=fixed;imageAspect=0;image=data:image/svg+xml,PHN2ZyB4bWxucz0iaHR0cDovL3d3dy53My5vcmcvMjAwMC9zdmciIHhtbG5zOnhsaW5rPSJodHRwOi8vd3d3LnczLm9yZy8xOTk5L3hsaW5rIiB2ZXJzaW9uPSIxLjEiIHdpZHRoPSI4MHB4IiBoZWlnaHQ9IjEwOHB4IiB2aWV3Qm94PSItMC41IC0wLjUgODAgMTA4Ij48ZGVmcy8+PGc+PHJlY3QgeD0iMjEiIHk9IjciIHdpZHRoPSI1MCIgaGVpZ2h0PSI3MCIgZmlsbD0icmdiKDI1NSwgMjU1LCAyNTUpIiBzdHJva2U9IiM3ZDdkN2QiIHBvaW50ZXItZXZlbnRzPSJhbGwiLz48cGF0aCBkPSJNIDIxIDI0LjUgTCA3MSAyNC41IiBmaWxsPSJub25lIiBzdHJva2U9IiM3ZDdkN2QiIHN0cm9rZS1taXRlcmxpbWl0PSIxMCIgcG9pbnRlci1ldmVudHM9InN0cm9rZSIvPjxwYXRoIGQ9Ik0gMjEgNTkuNSBMIDcxIDU5LjUiIGZpbGw9Im5vbmUiIHN0cm9rZT0iIzdkN2Q3ZCIgc3Ryb2tlLW1pdGVybGltaXQ9IjEwIiBwb2ludGVyLWV2ZW50cz0ic3Ryb2tlIi8+PHBhdGggZD0iTSAyMC45IDE1LjMzIEwgNzEuMjUgMTUuMzMiIGZpbGw9Im5vbmUiIHN0cm9rZT0iIzdkN2Q3ZCIgc3Ryb2tlLW1pdGVybGltaXQ9IjEwIiBwb2ludGVyLWV2ZW50cz0ic3Ryb2tlIi8+PHBhdGggZD0iTSAyMS4xNSA2OC40NiBMIDcxLjA1IDY4LjM5IiBmaWxsPSJub25lIiBzdHJva2U9IiM3ZDdkN2QiIHN0cm9rZS1taXRlcmxpbWl0PSIxMCIgcG9pbnRlci1ldmVudHM9InN0cm9rZSIvPjxwYXRoIGQ9Ik0gNDUuOTIgNTIgTCA0NS45MiAzMiIgZmlsbD0ibm9uZSIgc3Ryb2tlPSIjN2Q3ZDdkIiBzdHJva2Utd2lkdGg9IjIiIHN0cm9rZS1taXRlcmxpbWl0PSIxMCIgc3Ryb2tlLWRhc2hhcnJheT0iMiA2IiBwb2ludGVyLWV2ZW50cz0ic3Ryb2tlIi8+PHBhdGggZD0iTSAxMSA3IEwgMTEgNzAuNjMiIGZpbGw9Im5vbmUiIHN0cm9rZT0iIzdkN2Q3ZCIgc3Ryb2tlLW1pdGVybGltaXQ9IjEwIiBwb2ludGVyLWV2ZW50cz0ic3Ryb2tlIi8+PHBhdGggZD0iTSAxMSA3NS44OCBMIDcuNSA2OC44OCBMIDExIDcwLjYzIEwgMTQuNSA2OC44OCBaIiBmaWxsPSIjN2Q3ZDdkIiBzdHJva2U9IiM3ZDdkN2QiIHN0cm9rZS1taXRlcmxpbWl0PSIxMCIgcG9pbnRlci1ldmVudHM9ImFsbCIvPjxwYXRoIGQ9Ik0gMjEgODcgTCA2NC42MyA4NyIgZmlsbD0ibm9uZSIgc3Ryb2tlPSIjN2Q3ZDdkIiBzdHJva2UtbWl0ZXJsaW1pdD0iMTAiIHBvaW50ZXItZXZlbnRzPSJzdHJva2UiLz48cGF0aCBkPSJNIDY5Ljg4IDg3IEwgNjIuODggOTAuNSBMIDY0LjYzIDg3IEwgNjIuODggODMuNSBaIiBmaWxsPSIjN2Q3ZDdkIiBzdHJva2U9IiM3ZDdkN2QiIHN0cm9rZS1taXRlcmxpbWl0PSIxMCIgcG9pbnRlci1ldmVudHM9ImFsbCIvPjxyZWN0IHg9IjAiIHk9IjI3IiB3aWR0aD0iMTAiIGhlaWdodD0iMzAiIGZpbGw9Im5vbmUiIHN0cm9rZT0ibm9uZSIgcG9pbnRlci1ldmVudHM9ImFsbCIvPjxnIHRyYW5zZm9ybT0idHJhbnNsYXRlKC0wLjUgLTAuNSkiPjxzd2l0Y2g+PGZvcmVpZ25PYmplY3QgcG9pbnRlci1ldmVudHM9Im5vbmUiIHdpZHRoPSIxMDAlIiBoZWlnaHQ9IjEwMCUiIHJlcXVpcmVkRmVhdHVyZXM9Imh0dHA6Ly93d3cudzMub3JnL1RSL1NWRzExL2ZlYXR1cmUjRXh0ZW5zaWJpbGl0eSIgc3R5bGU9Im92ZXJmbG93OiB2aXNpYmxlOyB0ZXh0LWFsaWduOiBsZWZ0OyI+PGRpdiB4bWxucz0iaHR0cDovL3d3dy53My5vcmcvMTk5OS94aHRtbCIgc3R5bGU9ImRpc3BsYXk6IGZsZXg7IGFsaWduLWl0ZW1zOiB1bnNhZmUgY2VudGVyOyBqdXN0aWZ5LWNvbnRlbnQ6IHVuc2FmZSBjZW50ZXI7IHdpZHRoOiA4cHg7IGhlaWdodDogMXB4OyBwYWRkaW5nLXRvcDogNDJweDsgbWFyZ2luLWxlZnQ6IDFweDsiPjxkaXYgZGF0YS1kcmF3aW8tY29sb3JzPSJjb2xvcjogcmdiKDAsIDAsIDApOyAiIHN0eWxlPSJib3gtc2l6aW5nOiBib3JkZXItYm94OyBmb250LXNpemU6IDBweDsgdGV4dC1hbGlnbjogY2VudGVyOyI+PGRpdiBzdHlsZT0iZGlzcGxheTogaW5saW5lLWJsb2NrOyBmb250LXNpemU6IDEycHg7IGZvbnQtZmFtaWx5OiBIZWx2ZXRpY2E7IGNvbG9yOiByZ2IoMCwgMCwgMCk7IGxpbmUtaGVpZ2h0OiAxLjI7IHBvaW50ZXItZXZlbnRzOiBhbGw7IHdoaXRlLXNwYWNlOiBub3JtYWw7IG92ZXJmbG93LXdyYXA6IG5vcm1hbDsiPnQ8L2Rpdj48L2Rpdj48L2Rpdj48L2ZvcmVpZ25PYmplY3Q+PHRleHQgeD0iNSIgeT0iNDYiIGZpbGw9InJnYigwLCAwLCAwKSIgZm9udC1mYW1pbHk9IkhlbHZldGljYSIgZm9udC1zaXplPSIxMnB4IiB0ZXh0LWFuY2hvcj0ibWlkZGxlIj50PC90ZXh0Pjwvc3dpdGNoPjwvZz48cmVjdCB4PSI0MCIgeT0iODciIHdpZHRoPSIxMCIgaGVpZ2h0PSIyMCIgZmlsbD0ibm9uZSIgc3Ryb2tlPSJub25lIiBwb2ludGVyLWV2ZW50cz0iYWxsIi8+PGcgdHJhbnNmb3JtPSJ0cmFuc2xhdGUoLTAuNSAtMC41KSI+PHN3aXRjaD48Zm9yZWlnbk9iamVjdCBwb2ludGVyLWV2ZW50cz0ibm9uZSIgd2lkdGg9IjEwMCUiIGhlaWdodD0iMTAwJSIgcmVxdWlyZWRGZWF0dXJlcz0iaHR0cDovL3d3dy53My5vcmcvVFIvU1ZHMTEvZmVhdHVyZSNFeHRlbnNpYmlsaXR5IiBzdHlsZT0ib3ZlcmZsb3c6IHZpc2libGU7IHRleHQtYWxpZ246IGxlZnQ7Ij48ZGl2IHhtbG5zPSJodHRwOi8vd3d3LnczLm9yZy8xOTk5L3hodG1sIiBzdHlsZT0iZGlzcGxheTogZmxleDsgYWxpZ24taXRlbXM6IHVuc2FmZSBjZW50ZXI7IGp1c3RpZnktY29udGVudDogdW5zYWZlIGNlbnRlcjsgd2lkdGg6IDhweDsgaGVpZ2h0OiAxcHg7IHBhZGRpbmctdG9wOiA5N3B4OyBtYXJnaW4tbGVmdDogNDFweDsiPjxkaXYgZGF0YS1kcmF3aW8tY29sb3JzPSJjb2xvcjogcmdiKDAsIDAsIDApOyAiIHN0eWxlPSJib3gtc2l6aW5nOiBib3JkZXItYm94OyBmb250LXNpemU6IDBweDsgdGV4dC1hbGlnbjogY2VudGVyOyI+PGRpdiBzdHlsZT0iZGlzcGxheTogaW5saW5lLWJsb2NrOyBmb250LXNpemU6IDEycHg7IGZvbnQtZmFtaWx5OiBIZWx2ZXRpY2E7IGNvbG9yOiByZ2IoMCwgMCwgMCk7IGxpbmUtaGVpZ2h0OiAxLjI7IHBvaW50ZXItZXZlbnRzOiBhbGw7IHdoaXRlLXNwYWNlOiBub3JtYWw7IG92ZXJmbG93LXdyYXA6IG5vcm1hbDsiPmY8L2Rpdj48L2Rpdj48L2Rpdj48L2ZvcmVpZ25PYmplY3Q+PHRleHQgeD0iNDUiIHk9IjEwMSIgZmlsbD0icmdiKDAsIDAsIDApIiBmb250LWZhbWlseT0iSGVsdmV0aWNhIiBmb250LXNpemU9IjEycHgiIHRleHQtYW5jaG9yPSJtaWRkbGUiPmY8L3RleHQ+PC9zd2l0Y2g+PC9nPjwvZz48c3dpdGNoPjxnIHJlcXVpcmVkRmVhdHVyZXM9Imh0dHA6Ly93d3cudzMub3JnL1RSL1NWRzExL2ZlYXR1cmUjRXh0ZW5zaWJpbGl0eSIvPjxhIHRyYW5zZm9ybT0idHJhbnNsYXRlKDAsLTUpIiB4bGluazpocmVmPSJodHRwczovL3d3dy5kaWFncmFtcy5uZXQvZG9jL2ZhcS9zdmctZXhwb3J0LXRleHQtcHJvYmxlbXMiIHRhcmdldD0iX2JsYW5rIj48dGV4dCB0ZXh0LWFuY2hvcj0ibWlkZGxlIiBmb250LXNpemU9IjEwcHgiIHg9IjUwJSIgeT0iMTAwJSI+VGV4dCBpcyBub3QgU1ZHIC0gY2Fubm90IGRpc3BsYXk8L3RleHQ+PC9hPjwvc3dpdGNoPjwvc3ZnPg==;" vertex="1" parent="gq8mlasPrk5nN6835-Ot-1">
          <mxGeometry x="159" y="72.5" width="50" height="67.5" as="geometry" />
        </mxCell>
        <mxCell id="9E7qsn4mrUv-apsOlwVs-9" value="Key Projection" style="text;html=1;strokeColor=none;fillColor=none;align=center;verticalAlign=middle;whiteSpace=wrap;rounded=0;" vertex="1" parent="gq8mlasPrk5nN6835-Ot-1">
          <mxGeometry x="220" y="22.5" width="90" height="30" as="geometry" />
        </mxCell>
        <mxCell id="9E7qsn4mrUv-apsOlwVs-10" style="edgeStyle=orthogonalEdgeStyle;rounded=0;orthogonalLoop=1;jettySize=auto;html=1;exitX=1;exitY=0.5;exitDx=0;exitDy=0;entryX=0;entryY=0.5;entryDx=0;entryDy=0;" edge="1" parent="gq8mlasPrk5nN6835-Ot-1" source="9E7qsn4mrUv-apsOlwVs-11" target="9E7qsn4mrUv-apsOlwVs-7">
          <mxGeometry relative="1" as="geometry" />
        </mxCell>
        <mxCell id="9E7qsn4mrUv-apsOlwVs-11" value="Key" style="text;html=1;strokeColor=none;fillColor=none;align=center;verticalAlign=middle;whiteSpace=wrap;rounded=0;fontColor=#004C99;" vertex="1" parent="gq8mlasPrk5nN6835-Ot-1">
          <mxGeometry x="130" y="52.5" width="30" height="30" as="geometry" />
        </mxCell>
        <mxCell id="9E7qsn4mrUv-apsOlwVs-12" style="edgeStyle=orthogonalEdgeStyle;rounded=0;orthogonalLoop=1;jettySize=auto;html=1;exitX=0.5;exitY=1;exitDx=0;exitDy=0;" edge="1" parent="gq8mlasPrk5nN6835-Ot-1" source="9E7qsn4mrUv-apsOlwVs-11" target="9E7qsn4mrUv-apsOlwVs-11">
          <mxGeometry relative="1" as="geometry" />
        </mxCell>
      </root>
    </mxGraphModel>
  </diagram>
</mxfile>
